<svg xmlns="http://www.w3.org/2000/svg" width="448.77" height="176.74" viewBox="0 0 448.77 176.74"><g id="a4cc171b-2530-4a45-be55-7d7d512cd6de" data-name="Layer 2"><g id="ba8bbc24-5af2-4a98-9c11-ac3d99dda720" data-name="Layer 1"><path d="M59.84,125.66H49.77v-8.92c-17.27-7.42-37.6-1.15-38.36,20.09H0c0-15.31,9.32-26.34,23.27-30.71,11.22-3.51,22.35-2.64,33.24,1.77a5.27,5.27,0,0,1,3.4,5C59.91,117,59.84,125.66,59.84,125.66Z"/><path d="M58.68,160.6c.82,10.85.36,11.61-9.56,14.18-9.77,2.53-19.51,2.55-28.94-1.45C7.17,167.8.44,157.32,0,143.4H11.69c1,12.59,6.06,19,17.33,21.88C39.33,167.91,49,165.24,58.68,160.6Z"/><path d="M76.66,64.26h7.28v9.19H58.27v-9h7.36V3.73H83.88v9.06H76.66Z"/><path d="M1.06,13V3.52c7,0,20.54.06,20.54.06S34.74,25.5,40.52,35.22c.66,1.11,1.37,2.19,2.36,3.75,5.34-8.67,10.87-17.55,16-25.85V32.19L49,48.34H36.15L15.2,13Z"/><path d="M27.05,64.11v9.35H1.14V64.28H8.51V19.35H11.3l8.6,14.39,0,30.37Z"/><path d="M166.1,64.82l7,.05v8.58H147.79V64.88h7.28V33l-7.26,0V24.55H166.1Z"/><path d="M172.77,33.71l-.08-8.27A18.62,18.62,0,0,1,182,23.21c10.58,0,16.35,5.39,17.32,15.95.59,6.48.38,13,.51,19.56,0,1.85,0,5.91,0,5.91l6.72,0v8.79H188.84c0-8.28,0-16.5,0-24.72a53,53,0,0,0-.3-7.57c-1-6.89-5.79-10.09-12.61-8.68A22.2,22.2,0,0,0,172.77,33.71Z"/><path d="M112.77,23.68c.27,5.26-.44,8.81-3.35,10.36-9.19,4.88-10.3,23.32-1.31,29,5,3.15,4.61,6.49,4.4,11.08-12.43-.34-21.14-9.57-21.9-23.21C89.79,36.15,98.13,25.68,112.77,23.68Z"/><path d="M119.54,23.74c13.8,1.4,22.06,11,22,25.24s-8.7,24.1-22.19,25.29c-.11-3.93-.68-7.88,3-9.94,9.69-5.49,10.54-24.72.87-30C119.6,32.34,119.17,28.69,119.54,23.74Z"/><path d="M154,101.51v7.75c-6.78,0-9.19,1.2-11.18,3.88s-1.64,7.7-1.64,12.66H152.2v8.72H123v-8.43c2.41-.11,4.76,0,7.38-.15.3-8-1.18-16.17,6.44-21.37C142,101.07,147.86,101.23,154,101.51Z"/><path d="M152.32,166.34v8.72H123.17v-8.52l7.32-.1v-25.3h11v25.2Z"/><path d="M279.92,73.62H269.08C264.6,62,253.6,33,253.6,33l-6.1,0V24.29h23.65v8.83l-6.18,0S274.88,60.06,279.92,73.62Z"/><polygon points="303.14 24.29 303.14 33.28 296.67 33.26 284.05 66.2 279.32 52.64 286.52 33.06 280.36 33.07 280.36 24.29 303.14 24.29"/><path d="M242.09,73.71a109.86,109.86,0,0,1-12.09-.5c-6.93-1-10.7-4.67-11.16-11.54-.49-7.27-.11-22.17-.11-22.17H229.6s0,10.59,0,15.88c0,8.1,1.2,9.33,9.13,9.46l3.35,0Z"/><polygon points="242.1 24.29 242.1 32.98 209.82 32.98 209.82 24.43 218.41 24.43 218.41 9.59 229.39 9.59 229.39 24.29 242.1 24.29"/><path d="M215.12,125.2c0,1.68,0,3,0,4.58,0,2.68-.62,4.15-3.05,5.66-2.2,1.36-7.08,3.65-7.08,14.25.28,11.14,6,17.77,15.18,17.77,8.67,0,13.6-1.6,18.54-4.1,3.13,6.36,1.26,9.29-5.72,11.39a38.33,38.33,0,0,1-21.87.51c-4.93-1.41-11.15-5.8-13.75-11.94-3.83-9-3.5-18.21-.8-24.53C199.54,131.92,205.14,126.75,215.12,125.2Z"/><path d="M212.8,144.93h17.47c0-8.19-5.31-8.51-7.55-11.59-1.45-2-1-5.19-1.12-8.14,13.11,1.09,21,12.52,18.87,27.35H212.8Z"/><path d="M371.62,0h17.81V58.55H378.6v-50h-7Z"/><path d="M371.42,73.39v-8.2h25.2v8.2h-25.2Z"/><path d="M347.41,8.56h-7V0h17.8V58.54H347.41Z"/><path d="M340.22,73.45V65.19h25.2v8.26h-25.2Z"/><path d="M308.35,33.19v-8.9h18.46V58.62H316.2V33.18Z"/><path d="M334.14,73.5H308.38V65.17h25.76V73.5Z"/><polygon points="315.84 0 321.52 0 327.2 0 327.2 5.41 327.2 10.81 321.52 10.81 315.84 10.81 315.84 5.41 315.84 0"/><path d="M87.77,125.31c.27,5.26-.44,8.81-3.35,10.36-9.19,4.89-10.31,23.32-1.31,29,5,3.15,4.61,6.49,4.39,11.08-12.43-.34-21.14-9.57-21.9-23.21C64.78,137.78,73.12,127.31,87.77,125.31Z"/><path d="M94.54,125.37c13.79,1.4,22.06,11,22,25.24s-8.69,24.11-22.18,25.3c-.11-3.94-.69-7.89,3-9.95,9.68-5.48,10.54-24.71.87-30C94.59,134,94.16,130.32,94.54,125.37Z"/><path d="M189.2,101.51v7.75c-6.78,0-9.19,1.2-11.18,3.88s-1.63,7.7-1.63,12.66h11.06v8.72H158.29v-8.43c2.41-.11,4.77,0,7.38-.15.3-8-1.18-16.17,6.45-21.37C177.25,101.07,183.11,101.23,189.2,101.51Z"/><path d="M187.58,166.34v8.72H158.42v-8.52l7.32-.1v-25.3H176.8v25.2Z"/><path d="M269.13,125.33c0,1.67,0,3,0,4.57,0,2.68-.61,4.16-3,5.67-2.2,1.36-7.09,3.65-7.09,14.25.29,11.13,6,17.76,15.19,17.76,8.67,0,13.6-1.6,18.54-4.1,3.12,6.37,1.26,9.3-5.72,11.39a38.25,38.25,0,0,1-21.87.52c-4.93-1.41-11.15-5.81-13.75-11.94-3.83-9-3.5-18.21-.8-24.53C253.54,132.05,259.14,126.88,269.13,125.33Z"/><path d="M266.81,145.06h17.46c0-8.19-5.31-8.51-7.55-11.59-1.45-2-1-5.19-1.11-8.14,13.11,1.08,21,12.52,18.87,27.35H266.81Z"/><path d="M423.08,23.69c0,1.67,0,3,0,4.57,0,2.68-.62,4.16-3.05,5.66-2.2,1.37-7.08,3.65-7.08,14.25.28,11.14,6,17.77,15.18,17.77,8.67,0,13.6-1.6,18.54-4.1,3.13,6.37,1.26,9.3-5.72,11.39a38.33,38.33,0,0,1-21.87.52c-4.93-1.41-11.15-5.81-13.75-11.94-3.83-9-3.5-18.21-.8-24.54C407.49,30.41,413.1,25.24,423.08,23.69Z"/><path d="M420.76,43.42h17.47c0-8.2-5.32-8.51-7.55-11.6-1.45-2-1-5.18-1.12-8.13,13.11,1.08,21,12.51,18.87,27.35H420.76Z"/></g></g></svg>